<svg width="4400" height="2121" xmlns="http://www.w3.org/2000/svg" xmlns:xlink="http://www.w3.org/1999/xlink" xml:space="preserve" overflow="hidden"><defs><filter id="fx0" x="-10%" y="-10%" width="120%" height="120%" filterUnits="userSpaceOnUse" primitiveUnits="userSpaceOnUse"><feComponentTransfer color-interpolation-filters="sRGB"><feFuncR type="discrete" tableValues="0 0"/><feFuncG type="discrete" tableValues="0 0"/><feFuncB type="discrete" tableValues="0 0"/><feFuncA type="linear" slope="0.4" intercept="0"/></feComponentTransfer><feGaussianBlur stdDeviation="4.58333 4.58333"/></filter><filter id="fx1" x="-10%" y="-10%" width="120%" height="120%" filterUnits="userSpaceOnUse" primitiveUnits="userSpaceOnUse"><feComponentTransfer color-interpolation-filters="sRGB"><feFuncR type="discrete" tableValues="0 0"/><feFuncG type="discrete" tableValues="0 0"/><feFuncB type="discrete" tableValues="0 0"/><feFuncA type="linear" slope="0.4" intercept="0"/></feComponentTransfer><feGaussianBlur stdDeviation="4.58333 4.58333"/></filter><filter id="fx2" x="-10%" y="-10%" width="120%" height="120%" filterUnits="userSpaceOnUse" primitiveUnits="userSpaceOnUse"><feComponentTransfer color-interpolation-filters="sRGB"><feFuncR type="discrete" tableValues="0 0"/><feFuncG type="discrete" tableValues="0 0"/><feFuncB type="discrete" tableValues="0 0"/><feFuncA type="linear" slope="0.4" intercept="0"/></feComponentTransfer><feGaussianBlur stdDeviation="4.58333 4.58333"/></filter><filter id="fx3" x="-10%" y="-10%" width="120%" height="120%" filterUnits="userSpaceOnUse" primitiveUnits="userSpaceOnUse"><feComponentTransfer color-interpolation-filters="sRGB"><feFuncR type="discrete" tableValues="0 0"/><feFuncG type="discrete" tableValues="0 0"/><feFuncB type="discrete" tableValues="0 0"/><feFuncA type="linear" slope="0.4" intercept="0"/></feComponentTransfer><feGaussianBlur stdDeviation="4.58333 4.58333"/></filter><filter id="fx4" x="-10%" y="-10%" width="120%" height="120%" filterUnits="userSpaceOnUse" primitiveUnits="userSpaceOnUse"><feComponentTransfer color-interpolation-filters="sRGB"><feFuncR type="discrete" tableValues="0 0"/><feFuncG type="discrete" tableValues="0 0"/><feFuncB type="discrete" tableValues="0 0"/><feFuncA type="linear" slope="0.4" intercept="0"/></feComponentTransfer><feGaussianBlur stdDeviation="4.58333 4.58333"/></filter><filter id="fx5" x="-10%" y="-10%" width="120%" height="120%" filterUnits="userSpaceOnUse" primitiveUnits="userSpaceOnUse"><feComponentTransfer color-interpolation-filters="sRGB"><feFuncR type="discrete" tableValues="0 0"/><feFuncG type="discrete" tableValues="0 0"/><feFuncB type="discrete" tableValues="0 0"/><feFuncA type="linear" slope="0.4" intercept="0"/></feComponentTransfer><feGaussianBlur stdDeviation="4.58333 4.58333"/></filter><filter id="fx6" x="-10%" y="-10%" width="120%" height="120%" filterUnits="userSpaceOnUse" primitiveUnits="userSpaceOnUse"><feComponentTransfer color-interpolation-filters="sRGB"><feFuncR type="discrete" tableValues="0 0"/><feFuncG type="discrete" tableValues="0 0"/><feFuncB type="discrete" tableValues="0 0"/><feFuncA type="linear" slope="0.4" intercept="0"/></feComponentTransfer><feGaussianBlur stdDeviation="4.58333 4.58333"/></filter><filter id="fx7" x="-10%" y="-10%" width="120%" height="120%" filterUnits="userSpaceOnUse" primitiveUnits="userSpaceOnUse"><feComponentTransfer color-interpolation-filters="sRGB"><feFuncR type="discrete" tableValues="0 0"/><feFuncG type="discrete" tableValues="0 0"/><feFuncB type="discrete" tableValues="0 0"/><feFuncA type="linear" slope="0.4" intercept="0"/></feComponentTransfer><feGaussianBlur stdDeviation="4.58333 4.58333"/></filter><filter id="fx8" x="-10%" y="-10%" width="120%" height="120%" filterUnits="userSpaceOnUse" primitiveUnits="userSpaceOnUse"><feComponentTransfer color-interpolation-filters="sRGB"><feFuncR type="discrete" tableValues="0 0"/><feFuncG type="discrete" tableValues="0 0"/><feFuncB type="discrete" tableValues="0 0"/><feFuncA type="linear" slope="0.4" intercept="0"/></feComponentTransfer><feGaussianBlur stdDeviation="4.58333 4.58333"/></filter><filter id="fx9" x="-10%" y="-10%" width="120%" height="120%" filterUnits="userSpaceOnUse" primitiveUnits="userSpaceOnUse"><feComponentTransfer color-interpolation-filters="sRGB"><feFuncR type="discrete" tableValues="0 0"/><feFuncG type="discrete" tableValues="0 0"/><feFuncB type="discrete" tableValues="0 0"/><feFuncA type="linear" slope="0.4" intercept="0"/></feComponentTransfer><feGaussianBlur stdDeviation="4.58333 4.58333"/></filter><filter id="fx10" x="-10%" y="-10%" width="120%" height="120%" filterUnits="userSpaceOnUse" primitiveUnits="userSpaceOnUse"><feComponentTransfer color-interpolation-filters="sRGB"><feFuncR type="discrete" tableValues="0 0"/><feFuncG type="discrete" tableValues="0 0"/><feFuncB type="discrete" tableValues="0 0"/><feFuncA type="linear" slope="0.4" intercept="0"/></feComponentTransfer><feGaussianBlur stdDeviation="4.58333 4.58333"/></filter><filter id="fx11" x="-10%" y="-10%" width="120%" height="120%" filterUnits="userSpaceOnUse" primitiveUnits="userSpaceOnUse"><feComponentTransfer color-interpolation-filters="sRGB"><feFuncR type="discrete" tableValues="0 0"/><feFuncG type="discrete" tableValues="0 0"/><feFuncB type="discrete" tableValues="0 0"/><feFuncA type="linear" slope="0.4" intercept="0"/></feComponentTransfer><feGaussianBlur stdDeviation="4.58333 4.58333"/></filter><filter id="fx12" x="-10%" y="-10%" width="120%" height="120%" filterUnits="userSpaceOnUse" primitiveUnits="userSpaceOnUse"><feComponentTransfer color-interpolation-filters="sRGB"><feFuncR type="discrete" tableValues="0 0"/><feFuncG type="discrete" tableValues="0 0"/><feFuncB type="discrete" tableValues="0 0"/><feFuncA type="linear" slope="0.4" intercept="0"/></feComponentTransfer><feGaussianBlur stdDeviation="4.58333 4.58333"/></filter><filter id="fx13" x="-10%" y="-10%" width="120%" height="120%" filterUnits="userSpaceOnUse" primitiveUnits="userSpaceOnUse"><feComponentTransfer color-interpolation-filters="sRGB"><feFuncR type="discrete" tableValues="0 0"/><feFuncG type="discrete" tableValues="0 0"/><feFuncB type="discrete" tableValues="0 0"/><feFuncA type="linear" slope="0.4" intercept="0"/></feComponentTransfer><feGaussianBlur stdDeviation="4.58333 4.58333"/></filter><filter id="fx14" x="-10%" y="-10%" width="120%" height="120%" filterUnits="userSpaceOnUse" primitiveUnits="userSpaceOnUse"><feComponentTransfer color-interpolation-filters="sRGB"><feFuncR type="discrete" tableValues="0 0"/><feFuncG type="discrete" tableValues="0 0"/><feFuncB type="discrete" tableValues="0 0"/><feFuncA type="linear" slope="0.4" intercept="0"/></feComponentTransfer><feGaussianBlur stdDeviation="4.58333 4.58333"/></filter></defs><g><g filter="url(#fx0)" transform="translate(1688 1987)"><g><path d="M22.5043 14.5104 90.4095 21.4338 88.4158 40.9897 84.3101 40.5712C83.5381 37.4358 82.1184 34.4072 80.051 31.4855 77.9836 28.5637 76.0583 26.6571 74.2753 25.7657 72.4921 24.8743 68.8994 24.1532 63.4972 23.6024L52.4229 22.4733 49.3989 52.1312 57.2321 52.9299C61.5178 53.3668 64.7719 52.6798 66.9943 50.8685 69.2168 49.0574 71.0602 45.7885 72.5247 41.0616L76.6302 41.4802 73.3696 73.4611 69.2639 73.0424C68.6556 67.2308 67.469 63.3438 65.7042 61.3807 63.9393 59.4177 60.9501 58.2214 56.7363 57.7919L48.9032 56.9932 46.6504 79.088C46.2465 83.0497 46.5464 85.8185 47.5502 87.3944 48.554 88.9706 52.063 90.0653 58.0774 90.6783 63.2275 91.2035 66.9779 91.3585 69.3287 91.1434 71.6796 90.9281 73.4484 90.4445 74.6349 89.692 75.8214 88.9396 77.8539 86.6725 80.7322 82.8903 83.6104 79.1083 85.5287 76.2655 86.4869 74.3617L90.4305 74.7638 86.5914 98.4982 14.6885 91.1671 15.118 86.9535C19.6566 87.0524 22.6984 86.7528 24.2432 86.0553 25.7881 85.3575 26.6853 83.7843 26.9351 81.3353L32.4485 27.2596C32.6798 24.9907 32.1086 23.2769 30.7349 22.1179 29.3611 20.9589 26.4744 19.8276 22.0746 18.724Z" fill-rule="evenodd"/></g></g><path d="M1705.64 1996.65 1773.55 2003.57 1771.55 2023.13 1767.45 2022.71C1766.68 2019.57 1765.26 2016.55 1763.19 2013.62 1761.12 2010.7 1759.2 2008.8 1757.41 2007.9 1755.63 2007.01 1752.04 2006.29 1746.64 2005.74L1735.56 2004.61 1732.54 2034.27 1740.37 2035.07C1744.66 2035.51 1747.91 2034.82 1750.13 2033.01 1752.36 2031.2 1754.2 2027.93 1755.66 2023.2L1759.77 2023.62 1756.51 2055.6 1752.4 2055.18C1751.79 2049.37 1750.61 2045.48 1748.84 2043.52 1747.08 2041.56 1744.09 2040.36 1739.88 2039.93L1732.04 2039.13 1729.79 2061.23C1729.39 2065.19 1729.69 2067.96 1730.69 2069.53 1731.69 2071.11 1735.2 2072.2 1741.22 2072.82 1746.37 2073.34 1750.12 2073.5 1752.47 2073.28 1754.82 2073.07 1756.59 2072.58 1757.77 2071.83 1758.96 2071.08 1760.99 2068.81 1763.87 2065.03 1766.75 2061.25 1768.67 2058.4 1769.63 2056.5L1773.57 2056.9 1769.73 2080.64 1697.83 2073.31 1698.26 2069.09C1702.8 2069.19 1705.84 2068.89 1707.38 2068.19 1708.93 2067.5 1709.82 2065.92 1710.07 2063.47L1715.59 2009.4C1715.82 2007.13 1715.25 2005.42 1713.87 2004.26 1712.5 2003.1 1709.61 2001.97 1705.21 2000.86Z" fill-rule="evenodd"/><text fill="#000000" fill-opacity="0" font-family="Arial,Arial_MSFontService,sans-serif" font-size="83.9877" x="1697.83" y="2070.14">E</text><g filter="url(#fx1)" transform="translate(1768 2018)"><g><path d="M44.1456 15.1243C49.7 15.6041 54.964 17.1307 59.9376 19.7043L61.3495 16.6105 65.4612 16.9657 64.7283 35.5426 60.833 35.2062C59.8146 31.0123 57.8658 27.4919 54.9869 24.6453 52.108 21.7985 48.9915 20.2302 45.6372 19.9404 42.9321 19.7068 40.7257 20.1156 39.0179 21.1672 37.3102 22.2188 36.3674 23.7725 36.1898 25.8282 35.9811 28.2448 36.7269 30.126 38.4275 31.4719 40.1279 32.818 43.9197 34.5626 49.8026 36.7059 55.8833 39.0844 60.1561 41.7789 62.6212 44.7899 65.0863 47.8007 66.1335 51.452 65.7627 55.744 65.2672 61.4786 62.5491 65.8131 57.6083 68.7474 52.6674 71.6815 46.4641 72.8263 38.9982 72.1813 32.903 71.6547 27.056 69.5143 21.4575 65.7604L19.5214 69.245 15.3016 68.8802 16.3911 48.6989 20.2322 49.0309C21.4564 53.7875 23.7924 57.9772 27.2402 61.6 30.688 65.2225 34.5219 67.2162 38.7416 67.5807 45.1615 68.1354 48.599 65.7797 49.0538 60.514 49.2471 58.278 48.4686 56.4574 46.7188 55.0526 44.9688 53.6478 41.0864 51.7953 35.0717 49.4952 23.9581 45.2286 18.7737 38.7853 19.5184 30.1654 19.9484 25.1881 22.4292 21.2874 26.9609 18.4631 31.4926 15.6389 37.2208 14.526 44.1456 15.1243Z" fill-rule="evenodd"/></g></g><path d="M1807.28 2028.26C1812.84 2028.74 1818.1 2030.27 1823.08 2032.84L1824.49 2029.75 1828.6 2030.1 1827.87 2048.68 1823.97 2048.34C1822.95 2044.15 1821 2040.63 1818.13 2037.78 1815.25 2034.94 1812.13 2033.37 1808.78 2033.08 1806.07 2032.85 1803.86 2033.25 1802.16 2034.31 1800.45 2035.36 1799.51 2036.91 1799.33 2038.97 1799.12 2041.38 1799.87 2043.26 1801.57 2044.61 1803.27 2045.96 1807.06 2047.7 1812.94 2049.84 1819.02 2052.22 1823.29 2054.92 1825.76 2057.93 1828.22 2060.94 1829.27 2064.59 1828.9 2068.88 1828.41 2074.62 1825.69 2078.95 1820.75 2081.89 1815.81 2084.82 1809.6 2085.96 1802.14 2085.32 1796.04 2084.79 1790.19 2082.65 1784.6 2078.9L1782.66 2082.38 1778.44 2082.02 1779.53 2061.84 1783.37 2062.17C1784.6 2066.93 1786.93 2071.12 1790.38 2074.74 1793.83 2078.36 1797.66 2080.35 1801.88 2080.72 1808.3 2081.27 1811.74 2078.92 1812.19 2073.65 1812.39 2071.42 1811.61 2069.6 1809.86 2068.19 1808.11 2066.79 1804.23 2064.93 1798.21 2062.63 1787.1 2058.37 1781.91 2051.92 1782.66 2043.3 1783.09 2038.33 1785.57 2034.43 1790.1 2031.6 1794.63 2028.78 1800.36 2027.66 1807.28 2028.26Z" fill-rule="evenodd"/><text fill="#000000" fill-opacity="0" font-family="Arial,Arial_MSFontService,sans-serif" font-size="57.3881" x="1778.44" y="2078.32">s</text><g filter="url(#fx2)" transform="translate(1825 2007)"><g><path d="M26.333 14.6471 43.9857 15.9725 42.7539 32.3798 57.8075 33.51 57.3765 39.2498 42.4313 38.1277 40.2806 66.7726C39.8795 72.1154 40.2517 75.6193 41.3973 77.2845 42.5428 78.9498 44.5055 79.8866 47.2852 80.0953 50.0648 80.3041 52.6803 80.2826 55.1315 80.0311L54.79 84.5795C48.4219 86.7152 42.6205 87.5865 37.3861 87.1937 26.3035 86.3615 21.1593 80.6569 21.9534 70.0797L24.4536 36.778 14.7068 36.0463 15.1377 30.3064 25.1012 31.0544Z" fill-rule="evenodd"/></g></g><path d="M1846.47 2016.79 1864.12 2018.11 1862.89 2034.52 1877.95 2035.65 1877.52 2041.39 1862.57 2040.27 1860.42 2068.91C1860.02 2074.25 1860.39 2077.76 1861.54 2079.42 1862.68 2081.09 1864.64 2082.03 1867.42 2082.23 1870.2 2082.44 1872.82 2082.42 1875.27 2082.17L1874.93 2086.72C1868.56 2088.85 1862.76 2089.73 1857.52 2089.33 1846.44 2088.5 1841.3 2082.8 1842.09 2072.22L1844.59 2038.92 1834.85 2038.18 1835.28 2032.45 1845.24 2033.19Z" fill-rule="evenodd"/><text fill="#000000" fill-opacity="0" font-family="Arial,Arial_MSFontService,sans-serif" font-size="72.6381" x="1834.85" y="2080.34">t</text><g filter="url(#fx3)" transform="translate(1873 2061)"><g><path d="M26.9436 14.6499C29.8334 14.8411 32.2644 16.072 34.2366 18.343 36.2087 20.614 37.1017 23.1582 36.9153 25.9758 36.7266 28.8296 35.4972 31.2334 33.2274 33.1875 30.9576 35.1416 28.3959 36.0242 25.5422 35.8354 22.5802 35.6396 20.1113 34.4331 18.1356 32.2163 16.1598 29.9995 15.2675 27.4463 15.4586 24.5566 15.6475 21.7029 16.8593 19.2888 19.0941 17.3142 21.329 15.3396 23.9454 14.4514 26.9436 14.6499Z" fill-rule="evenodd"/></g></g><path d="M1895.08 2070.79C1897.97 2070.98 1900.4 2072.21 1902.38 2074.48 1904.35 2076.75 1905.24 2079.3 1905.05 2082.11 1904.87 2084.97 1903.64 2087.37 1901.37 2089.33 1899.1 2091.28 1896.53 2092.16 1893.68 2091.97 1890.72 2091.78 1888.25 2090.57 1886.27 2088.35 1884.3 2086.14 1883.41 2083.58 1883.6 2080.7 1883.79 2077.84 1885 2075.43 1887.23 2073.45 1889.47 2071.48 1892.08 2070.59 1895.08 2070.79Z" fill-rule="evenodd"/><text fill="#000000" fill-opacity="0" font-family="Arial,Arial_MSFontService,sans-serif" font-size="21.2375" x="1883.57" y="2089.34">.</text><g filter="url(#fx4)" transform="translate(1934 2006)"><g><path d="M18.7838 15.4767 87.8313 18.7758 86.8491 39.3326 82.781 39.1383C81.6434 35.6409 79.8652 32.276 77.4464 29.0436 75.0277 25.8112 72.7521 23.9447 70.6195 23.4441 68.4871 22.9436 65.3054 22.5922 61.0747 22.39L49.0876 21.8174 47.6442 52.0289 55.1835 52.389C59.9567 52.6171 63.3485 51.6014 65.3593 49.3417 67.37 47.0819 68.8914 43.8748 69.9235 39.72L74.0457 39.917 72.5011 72.2438 68.3789 72.0468C68.3395 70.5953 67.7931 68.3766 66.7397 65.3905 65.6865 62.4047 64.2438 60.3605 62.4119 59.2582 60.58 58.1559 58.0911 57.5294 54.9451 57.3793L47.4058 57.0189 46.1852 82.566C46.1039 84.2655 46.5582 85.755 47.5482 87.0345 48.5381 88.3141 51.6046 89.3666 56.7478 90.1923L56.5458 94.423 15.1064 92.443 15.3086 88.2123C20.099 88.0787 23.1852 87.5829 24.5671 86.7247 25.9491 85.8666 26.6953 84.2804 26.8059 81.9662L29.4 27.6721C29.5123 25.3218 28.8411 23.6316 27.3862 22.6017 25.9314 21.5717 22.9966 20.6069 18.5817 19.7074Z" fill-rule="evenodd"/></g></g><path d="M1947.92 2016.62 2016.97 2019.91 2015.99 2040.47 2011.92 2040.28C2010.78 2036.78 2009 2033.41 2006.59 2030.18 2004.17 2026.95 2001.89 2025.08 1999.76 2024.58 1997.63 2024.08 1994.44 2023.73 1990.21 2023.53L1978.23 2022.96 1976.78 2053.17 1984.32 2053.53C1989.1 2053.76 1992.49 2052.74 1994.5 2050.48 1996.51 2048.22 1998.03 2045.01 1999.06 2040.86L2003.18 2041.06 2001.64 2073.38 1997.52 2073.19C1997.48 2071.73 1996.93 2069.52 1995.88 2066.53 1994.83 2063.54 1993.38 2061.5 1991.55 2060.4 1989.72 2059.29 1987.23 2058.67 1984.08 2058.52L1976.54 2058.16 1975.32 2083.7C1975.24 2085.4 1975.7 2086.89 1976.69 2088.17 1977.68 2089.45 1980.74 2090.51 1985.89 2091.33L1985.68 2095.56 1944.25 2093.58 1944.45 2089.35C1949.24 2089.22 1952.32 2088.72 1953.71 2087.86 1955.09 2087.01 1955.83 2085.42 1955.94 2083.1L1958.54 2028.81C1958.65 2026.46 1957.98 2024.77 1956.52 2023.74 1955.07 2022.71 1952.14 2021.75 1947.72 2020.85Z" fill-rule="evenodd"/><text fill="#000000" fill-opacity="0" font-family="Arial,Arial_MSFontService,sans-serif" font-size="78.9462" x="1944.25" y="2085.69">F</text><g filter="url(#fx5)" transform="translate(2008 2003)"><g><path d="M42.3568 45.2423 43.2506 46.089 41.7251 89.1776C41.6584 91.0587 42.1589 92.5255 43.2266 93.5775 44.2941 94.6295 46.4475 95.4484 49.687 96.0341L49.5447 100.05 15.1934 98.8336 15.3354 94.818C18.85 94.7975 21.1404 94.308 22.2067 93.3495 23.2729 92.3912 23.8375 91.0255 23.9003 89.2528L25.0184 57.6691C25.1683 53.4362 22.0387 50.7716 15.6296 49.6753L15.7719 45.6595ZM33.8508 15.3824C36.8175 15.4875 39.3239 16.5724 41.3699 18.6372 43.4158 20.7019 44.3915 23.0729 44.2966 25.7501 44.2019 28.4274 43.0707 30.7056 40.9032 32.585 38.7357 34.4644 36.1505 35.3508 33.1477 35.2445 30.181 35.1395 27.7009 34.0826 25.7073 32.0741 23.7136 30.0656 22.7648 27.7046 22.8608 24.9912 22.9569 22.2778 24.08 19.972 26.2301 18.074 28.3801 16.1759 30.9204 15.2788 33.8508 15.3824Z" fill-rule="evenodd"/></g></g><path d="M2045.5 2043.38 2046.39 2044.23 2044.86 2087.32C2044.8 2089.2 2045.3 2090.66 2046.37 2091.72 2047.43 2092.77 2049.59 2093.59 2052.83 2094.17L2052.68 2098.19 2018.33 2096.97 2018.47 2092.96C2021.99 2092.94 2024.28 2092.45 2025.35 2091.49 2026.41 2090.53 2026.98 2089.16 2027.04 2087.39L2028.16 2055.81C2028.31 2051.57 2025.18 2048.91 2018.77 2047.81L2018.91 2043.8ZM2036.99 2013.52C2039.96 2013.63 2042.46 2014.71 2044.51 2016.78 2046.55 2018.84 2047.53 2021.21 2047.44 2023.89 2047.34 2026.57 2046.21 2028.84 2044.04 2030.72 2041.87 2032.6 2039.29 2033.49 2036.29 2033.38 2033.32 2033.28 2030.84 2032.22 2028.85 2030.21 2026.85 2028.2 2025.9 2025.84 2026 2023.13 2026.1 2020.42 2027.22 2018.11 2029.37 2016.21 2031.52 2014.31 2034.06 2013.42 2036.99 2013.52Z" fill-rule="evenodd"/><text fill="#000000" fill-opacity="0" font-family="Arial,Arial_MSFontService,sans-serif" font-size="84.6754" x="2018.33" y="2087.6">i</text><g filter="url(#fx6)" transform="translate(2048 2034)"><g><path d="M62.2065 14.9941C67.8162 15.1224 72.1318 16.8143 75.1536 20.0699 78.175 23.3256 79.6189 27.8849 79.4846 33.7479L78.874 60.4574C78.8201 62.8099 79.4719 64.4 80.8289 65.2277 82.186 66.0553 84.1101 66.6244 86.6016 66.9347L86.5098 70.952 53.8286 70.2047 53.9204 66.1874C57.144 66.1525 59.093 65.6449 59.7671 64.6644 60.4414 63.6842 60.7991 62.2892 60.8406 60.4796L61.4202 35.1273C61.5898 27.7079 59.0146 23.9374 53.6946 23.8158 48.9534 23.7074 44.9749 25.8795 41.7588 30.3324L41.0935 59.4305C41.0496 61.3488 41.4419 62.797 42.2705 63.7755 43.0991 64.754 44.9919 65.5126 47.949 66.0509L47.8569 70.0682 14.7959 69.3121 14.8877 65.2948C18.729 65.1654 21.0771 64.6127 21.9324 63.6364 22.7876 62.66 23.2346 61.3214 23.2734 59.6205L23.9961 28.025C24.0986 23.5372 21.1531 20.9171 15.1592 20.1644L15.2512 16.1473 41.1775 15.3823 42.0815 16.2177 41.9016 24.0892 42.1189 24.0944C46.6318 19.9247 50.3027 17.3472 53.1316 16.3617 55.9604 15.3763 58.9856 14.9204 62.2065 14.9941Z" fill-rule="evenodd"/></g></g><path d="M2105.35 2044.13C2110.95 2044.26 2115.27 2045.95 2118.29 2049.21 2121.31 2052.46 2122.76 2057.02 2122.62 2062.89L2122.01 2089.6C2121.96 2091.95 2122.61 2093.54 2123.97 2094.37 2125.32 2095.19 2127.25 2095.76 2129.74 2096.07L2129.65 2100.09 2096.97 2099.34 2097.06 2095.33C2100.28 2095.29 2102.23 2094.78 2102.91 2093.8 2103.58 2092.82 2103.94 2091.43 2103.98 2089.62L2104.56 2064.27C2104.73 2056.85 2102.15 2053.08 2096.83 2052.95 2092.09 2052.85 2088.11 2055.02 2084.9 2059.47L2084.23 2088.57C2084.19 2090.49 2084.58 2091.94 2085.41 2092.91 2086.24 2093.89 2088.13 2094.65 2091.09 2095.19L2091 2099.21 2057.93 2098.45 2058.03 2094.43C2061.87 2094.3 2064.22 2093.75 2065.07 2092.77 2065.93 2091.8 2066.37 2090.46 2066.41 2088.76L2067.13 2057.16C2067.24 2052.68 2064.29 2050.06 2058.3 2049.3L2058.39 2045.29 2084.32 2044.52 2085.22 2045.36 2085.04 2053.23 2085.26 2053.23C2089.77 2049.06 2093.44 2046.49 2096.27 2045.5 2099.1 2044.52 2102.12 2044.06 2105.35 2044.13Z" fill-rule="evenodd"/><text fill="#000000" fill-opacity="0" font-family="Arial,Arial_MSFontService,sans-serif" font-size="55.9655" x="2057.93" y="2093.09">n</text><g filter="url(#fx7)" transform="translate(2122 2006)"><g><path d="M42.9158 15.1134 43.6667 15.9901 42.905 88.5875C42.8645 92.4608 45.5564 94.6793 50.981 95.2433L50.939 99.2614 16.8936 98.9042 16.9355 94.8859C20.2676 94.7762 22.4358 94.274 23.4409 93.3795 24.4458 92.4847 24.9585 91.0602 24.979 89.1053L25.6104 28.9425C25.6631 23.9108 22.2908 20.9791 15.4932 20.1476L15.5342 16.238Z" fill-rule="evenodd"/></g></g><path d="M2160.05 2016.25 2160.81 2017.13 2160.04 2089.73C2160 2093.6 2162.7 2095.82 2168.12 2096.38L2168.08 2100.4 2134.03 2100.04 2134.07 2096.02C2137.41 2095.91 2139.57 2095.41 2140.58 2094.52 2141.58 2093.62 2142.1 2092.2 2142.12 2090.24L2142.75 2030.08C2142.8 2025.05 2139.43 2022.12 2132.63 2021.29L2132.67 2017.38Z" fill-rule="evenodd"/><text fill="#000000" fill-opacity="0" font-family="Arial,Arial_MSFontService,sans-serif" font-size="84.1478" x="2132.63" y="2089.88">l</text><g filter="url(#fx8)" transform="translate(2165 2035)"><g><path d="M48.4482 40.8478C41.8977 43.1696 37.718 45.399 35.9097 47.5363 34.1011 49.6735 33.198 52.3531 33.2004 55.5751 33.2043 60.8966 35.4329 63.5558 39.8855 63.5524 43.0349 63.5499 45.8035 62.1361 48.1904 59.3107ZM41.3696 14.8427C50.7458 14.8357 57.2451 16.3331 60.8674 19.3351 64.4897 22.337 66.3032 26.9152 66.3079 33.0695L65.8923 58.6459C65.894 60.6368 66.248 62.0936 66.9546 63.0162 67.6611 63.9388 68.4309 64.5358 69.2637 64.8065 70.0967 65.0775 72.124 65.2118 75.3459 65.2094L75.3489 69.2277C70.8613 71.0773 66.7168 72.0035 62.9158 72.0062 54.9153 72.0123 50.2073 69.4454 48.7915 64.306L48.4658 64.3063C43.4377 69.4506 37.1587 72.0255 29.6289 72.0311 25.3569 72.0343 21.7722 70.7789 18.8743 68.2653 15.9763 65.7513 14.5259 62.4852 14.5227 58.4669 14.5203 55.0641 15.2874 52.1945 16.8242 49.8583 18.3611 47.5223 20.4412 45.756 23.0649 44.5592 25.6887 43.3627 30.8188 41.6031 38.4556 39.2806 43.4502 37.7565 46.7798 36.6136 48.4446 35.8522L48.4407 30.7477C48.4351 23.1093 45.7896 19.2921 40.5042 19.296 38.0786 19.2977 35.8889 19.9691 33.9351 21.3099 34.0078 21.7443 34.135 22.215 34.3164 22.7216 35.187 25.255 35.623 27.2999 35.624 28.8566 35.6274 33.382 32.5159 35.6469 26.2893 35.6515 20.135 35.6559 17.0559 33.0336 17.052 27.7845 17.0496 24.2006 19.6174 21.1488 24.7561 18.6288 29.8948 16.1093 35.4326 14.847 41.3696 14.8427Z" fill-rule="evenodd"/></g></g><path d="M2208.59 2070.99C2202.04 2073.31 2197.86 2075.54 2196.05 2077.67 2194.24 2079.81 2193.34 2082.49 2193.34 2085.71 2193.34 2091.04 2195.57 2093.69 2200.02 2093.69 2203.17 2093.69 2205.94 2092.27 2208.33 2089.45ZM2201.51 2044.98C2210.88 2044.97 2217.38 2046.47 2221.01 2049.47 2224.63 2052.48 2226.44 2057.05 2226.45 2063.21L2226.03 2088.78C2226.03 2090.78 2226.39 2092.23 2227.09 2093.15 2227.8 2094.08 2228.57 2094.67 2229.4 2094.95 2230.24 2095.22 2232.26 2095.35 2235.48 2095.35L2235.49 2099.37C2231 2101.22 2226.86 2102.14 2223.05 2102.14 2215.05 2102.15 2210.35 2099.58 2208.93 2094.44L2208.6 2094.44C2203.58 2099.59 2197.3 2102.16 2189.77 2102.17 2185.5 2102.17 2181.91 2100.92 2179.01 2098.4 2176.11 2095.89 2174.66 2092.62 2174.66 2088.61 2174.66 2085.2 2175.43 2082.33 2176.96 2080 2178.5 2077.66 2180.58 2075.89 2183.2 2074.7 2185.83 2073.5 2190.96 2071.74 2198.59 2069.42 2203.59 2067.9 2206.92 2066.75 2208.58 2065.99L2208.58 2060.89C2208.57 2053.25 2205.93 2049.43 2200.64 2049.43 2198.22 2049.44 2196.03 2050.11 2194.07 2051.45 2194.15 2051.88 2194.27 2052.35 2194.46 2052.86 2195.33 2055.39 2195.76 2057.44 2195.76 2059 2195.77 2063.52 2192.65 2065.79 2186.43 2065.79 2180.27 2065.79 2177.19 2063.17 2177.19 2057.92 2177.19 2054.34 2179.76 2051.29 2184.89 2048.77 2190.03 2046.25 2195.57 2044.99 2201.51 2044.98Z" fill-rule="evenodd"/><text fill="#000000" fill-opacity="0" font-family="Arial,Arial_MSFontService,sans-serif" font-size="57.1884" x="2174.66" y="2095.02">a</text><g filter="url(#fx9)" transform="translate(2228 2034)"><g><path d="M62.1689 15.1761C67.7795 15.0857 72.1577 16.6082 75.304 19.7435 78.45 22.8788 80.0703 27.3785 80.1648 33.2423L80.5955 59.9554C80.6333 62.3082 81.3464 63.8717 82.7346 64.6456 84.123 65.4198 86.0681 65.9135 88.5696 66.1266L88.6343 70.1444 55.949 70.6713 55.8843 66.6534C59.104 66.493 61.0315 65.9098 61.667 64.9039 62.3025 63.8978 62.6057 62.4901 62.5764 60.6803L62.168 35.3246C62.0483 27.9042 59.3281 24.2369 54.0071 24.3229 49.2654 24.3993 45.3745 26.7247 42.3347 31.2994L42.8037 60.4015C42.8345 62.3199 43.283 63.7518 44.1492 64.6974 45.0151 65.6429 46.936 66.327 49.9119 66.7496L49.9766 70.7675 16.9111 71.3004 16.8462 67.2826C20.6797 67.0035 23.0044 66.3597 23.821 65.3507 24.6375 64.3419 25.032 62.9869 25.0046 61.2858L24.4954 29.6862C24.4229 25.1979 21.3774 22.6945 15.3589 22.1759L15.2942 18.1582 41.1709 16.3834 42.1072 17.183 42.2339 25.0555 42.4512 25.0521C46.7983 20.7098 50.366 17.9912 53.1543 16.8964 55.9426 15.8014 58.9475 15.228 62.1689 15.1761Z" fill-rule="evenodd"/></g></g><path d="M2285.31 2044.31C2290.92 2044.22 2295.3 2045.75 2298.44 2048.88 2301.59 2052.02 2303.21 2056.52 2303.3 2062.38L2303.73 2089.09C2303.77 2091.45 2304.49 2093.01 2305.87 2093.78 2307.26 2094.56 2309.21 2095.05 2311.71 2095.27L2311.77 2099.28 2279.09 2099.81 2279.02 2095.79C2282.24 2095.63 2284.17 2095.05 2284.81 2094.04 2285.44 2093.04 2285.74 2091.63 2285.72 2089.82L2285.31 2064.46C2285.19 2057.04 2282.47 2053.38 2277.15 2053.46 2272.4 2053.54 2268.51 2055.86 2265.47 2060.44L2265.94 2089.54C2265.97 2091.46 2266.42 2092.89 2267.29 2093.84 2268.15 2094.78 2270.07 2095.47 2273.05 2095.89L2273.12 2099.91 2240.05 2100.44 2239.98 2096.42C2243.82 2096.14 2246.14 2095.5 2246.96 2094.49 2247.78 2093.48 2248.17 2092.13 2248.14 2090.42L2247.63 2058.82C2247.56 2054.34 2244.52 2051.83 2238.5 2051.31L2238.43 2047.3 2264.31 2045.52 2265.25 2046.32 2265.37 2054.19 2265.59 2054.19C2269.94 2049.85 2273.5 2047.13 2276.29 2046.04 2279.08 2044.94 2282.09 2044.37 2285.31 2044.31Z" fill-rule="evenodd"/><text fill="#000000" fill-opacity="0" font-family="Arial,Arial_MSFontService,sans-serif" font-size="56.1279" x="2238.43" y="2093.42">n</text><g filter="url(#fx10)" transform="translate(2307 2003)"><g><path d="M45.9104 49.9008C42.2922 50.0177 39.4023 52.212 37.2405 56.4835 35.0786 60.7548 34.1152 66.527 34.3503 73.7997 34.5564 80.1676 35.8123 85.1254 38.1184 88.6727 40.4243 92.2203 43.658 93.9266 47.8188 93.7921 51.5095 93.6727 54.6433 92.014 57.22 88.8158L56.2285 58.1512C56.198 57.2106 55.312 55.5731 53.5703 53.2389 51.8289 50.9047 49.2754 49.792 45.9104 49.9008ZM71.8401 15.0516 72.6279 15.8954 74.929 87.0477C75.0002 89.255 75.6602 90.8998 76.9084 91.9821 78.157 93.0646 80.8821 93.6102 85.0837 93.6193L85.2136 97.6356 58.4517 100.022 57.6675 99.287 57.5059 94.2938 57.0681 94.1993C52.2307 99.173 46.863 101.755 40.9653 101.946 33.6565 102.182 27.5537 99.6722 22.657 94.4156 17.7603 89.1591 15.1716 82.1891 14.8906 73.5052 14.6355 65.6176 17.1079 58.9093 22.3079 53.3805 27.5078 47.8519 33.7622 44.9694 41.071 44.733 46.7878 44.5481 51.728 45.5474 55.8914 47.7308L55.3157 29.9292C55.1343 24.3209 50.9126 21.4512 42.6501 21.3199L42.5237 17.4122Z" fill-rule="evenodd"/></g></g><path d="M2348.05 2048.04C2344.43 2048.16 2341.54 2050.35 2339.38 2054.62 2337.22 2058.89 2336.25 2064.67 2336.49 2071.94 2336.7 2078.31 2337.95 2083.26 2340.26 2086.81 2342.56 2090.36 2345.8 2092.07 2349.96 2091.93 2353.65 2091.81 2356.78 2090.15 2359.36 2086.95L2358.37 2056.29C2358.34 2055.35 2357.45 2053.71 2355.71 2051.38 2353.97 2049.04 2351.41 2047.93 2348.05 2048.04ZM2373.98 2013.19 2374.77 2014.03 2377.07 2085.19C2377.14 2087.39 2377.8 2089.04 2379.05 2090.12 2380.3 2091.2 2383.02 2091.75 2387.22 2091.76L2387.35 2095.77 2360.59 2098.16 2359.81 2097.43 2359.64 2092.43 2359.21 2092.34C2354.37 2097.31 2349 2099.89 2343.1 2100.08 2335.8 2100.32 2329.69 2097.81 2324.8 2092.55 2319.9 2087.3 2317.31 2080.33 2317.03 2071.64 2316.77 2063.76 2319.25 2057.05 2324.45 2051.52 2329.65 2045.99 2335.9 2043.11 2343.21 2042.87 2348.93 2042.69 2353.87 2043.69 2358.03 2045.87L2357.45 2028.07C2357.27 2022.46 2353.05 2019.59 2344.79 2019.46L2344.66 2015.55Z" fill-rule="evenodd"/><text fill="#000000" fill-opacity="0" font-family="Arial,Arial_MSFontService,sans-serif" font-size="86.9093" x="2317.01" y="2089.24">d</text><g filter="url(#fx11)" transform="translate(2411 2005)"><g><path d="M40.8323 14.9457C49.7246 14.4623 56.8176 16.2247 62.1111 20.2332 67.4048 24.2416 70.2529 29.9509 70.6558 37.3612 70.9644 43.0365 69.3406 48.182 65.7849 52.7985 62.229 57.4149 54.281 62.5963 41.9404 68.3427 34.3396 71.91 29.4019 75.1151 27.1274 77.9579L27.1567 78.5001 75.3601 75.8798 76.2295 91.8751 16.4771 95.1234 15.8848 84.2247C17.5298 80.4735 22.3472 75.3898 30.3369 68.9735 44.1277 57.8912 50.7556 47.4342 50.2212 37.6019 49.5649 25.5286 45.2605 19.708 37.3079 20.1404 34.9221 20.27 32.8481 20.7997 31.0859 21.7294 32.8723 25.9103 33.844 29.4467 34.0012 32.3385 34.1367 34.8328 33.3616 36.9142 31.6758 38.5829 29.9902 40.2516 27.6472 41.1675 24.6467 41.3307 21.8635 41.4819 19.6523 40.8226 18.0134 39.3528 16.3748 37.8829 15.4844 35.8467 15.343 33.244 15.0935 28.6533 17.3364 24.5614 22.0715 20.9686 26.8069 17.3757 33.0605 15.3682 40.8323 14.9457Z" fill-rule="evenodd"/></g></g><path d="M2446.97 2015.08C2455.86 2014.6 2462.96 2016.36 2468.25 2020.37 2473.54 2024.38 2476.39 2030.09 2476.79 2037.5 2477.1 2043.18 2475.48 2048.32 2471.92 2052.94 2468.37 2057.55 2460.42 2062.73 2448.08 2068.48 2440.48 2072.05 2435.54 2075.25 2433.27 2078.1L2433.3 2078.64 2481.5 2076.02 2482.37 2092.01 2422.62 2095.26 2422.02 2084.36C2423.67 2080.61 2428.49 2075.53 2436.48 2069.11 2450.27 2058.03 2456.89 2047.57 2456.36 2037.74 2455.7 2025.67 2451.4 2019.85 2443.45 2020.28 2441.06 2020.41 2438.99 2020.94 2437.22 2021.87 2439.01 2026.05 2439.98 2029.59 2440.14 2032.48 2440.28 2034.97 2439.5 2037.05 2437.81 2038.72 2436.13 2040.39 2433.79 2041.31 2430.79 2041.47 2428 2041.62 2425.79 2040.96 2424.15 2039.49 2422.51 2038.02 2421.62 2035.99 2421.48 2033.38 2421.23 2028.79 2423.48 2024.7 2428.21 2021.11 2432.95 2017.51 2439.2 2015.51 2446.97 2015.08Z" fill-rule="evenodd"/><text fill="#000000" fill-opacity="0" font-family="Arial,Arial_MSFontService,sans-serif" font-size="80.2556" x="2421.46" y="2085.23">2</text><g filter="url(#fx12)" transform="translate(2480 2000)"><g><path d="M44.8616 20.3013C36.9531 20.8572 33.8225 32.8535 35.4697 56.2902 37.135 79.9796 41.8857 91.549 49.7222 90.9982 57.6306 90.4423 60.7522 78.3197 59.0872 54.63 57.4397 31.1935 52.698 19.7505 44.8616 20.3013ZM44.5188 15.4261C54.9553 14.6926 63.1746 17.6532 69.1765 24.308 75.1787 30.9626 78.6226 40.5917 79.5085 53.1947 80.4148 66.0865 78.3069 76.2418 73.1853 83.6605 68.0635 91.079 60.3567 95.15 50.0647 95.8734 39.52 96.6146 31.2756 93.683 25.3315 87.0785 19.3875 80.4742 15.9597 70.6898 15.0483 57.7257 14.1702 45.231 16.2622 35.2401 21.3247 27.7532 26.3872 20.2662 34.1187 16.1572 44.5188 15.4261Z" fill-rule="evenodd"/></g></g><path d="M2520 2015.44C2512.09 2016 2508.96 2027.99 2510.61 2051.43 2512.27 2075.12 2517.02 2086.69 2524.86 2086.14 2532.77 2085.58 2535.89 2073.46 2534.23 2049.77 2532.58 2026.33 2527.84 2014.89 2520 2015.44ZM2519.66 2010.56C2530.09 2009.83 2538.31 2012.79 2544.32 2019.45 2550.32 2026.1 2553.76 2035.73 2554.65 2048.33 2555.55 2061.23 2553.45 2071.38 2548.32 2078.8 2543.2 2086.22 2535.5 2090.29 2525.2 2091.01 2514.66 2091.75 2506.41 2088.82 2500.47 2082.22 2494.53 2075.61 2491.1 2065.83 2490.19 2052.86 2489.31 2040.37 2491.4 2030.38 2496.46 2022.89 2501.53 2015.4 2509.26 2011.3 2519.66 2010.56Z" fill-rule="evenodd"/><text fill="#000000" fill-opacity="0" font-family="Arial,Arial_MSFontService,sans-serif" font-size="80.6687" x="2489.99" y="2081.04">0</text><g filter="url(#fx13)" transform="translate(2554 1995)"><g><path d="M40.4072 14.9606C49.2795 14.1936 56.4253 15.7289 61.844 19.5663 67.2627 23.4038 70.2917 29.0193 70.9309 36.413 71.4204 42.0754 69.9617 47.2704 66.5552 51.9979 63.1484 56.7255 55.3696 62.1578 43.2188 68.295 35.7358 72.1031 30.9028 75.4642 28.7202 78.3781L28.7671 78.9191 76.8621 74.7618 78.2415 90.7213 18.6233 95.8746 17.6833 85.0006C19.2078 81.1989 23.8606 75.964 31.6414 69.2958 45.0715 57.7793 51.3623 47.1158 50.5144 37.3057 49.4731 25.2594 44.9851 19.5792 37.0505 20.2651 34.6702 20.4708 32.614 21.0664 30.8823 22.0519 32.8013 26.1737 33.8853 29.6772 34.1348 32.5626 34.3499 35.0513 33.6416 37.1564 32.0098 38.8781 30.3782 40.5997 28.0657 41.5898 25.072 41.8486 22.2949 42.0887 20.064 41.5004 18.3789 40.0835 16.6941 38.6667 15.7393 36.6599 15.5149 34.0631 15.1189 29.4827 17.23 25.3213 21.8484 21.5792 26.4666 17.837 32.6528 15.6309 40.4072 14.9606Z" fill-rule="evenodd"/></g></g><path d="M2589.55 2005.1C2598.42 2004.33 2605.56 2005.87 2610.98 2009.7 2616.4 2013.54 2619.43 2019.16 2620.07 2026.55 2620.56 2032.21 2619.1 2037.41 2615.69 2042.14 2612.29 2046.86 2604.51 2052.3 2592.36 2058.43 2584.87 2062.24 2580.04 2065.6 2577.86 2068.52L2577.91 2069.06 2626 2064.9 2627.38 2080.86 2567.76 2086.01 2566.82 2075.14C2568.35 2071.34 2573 2066.1 2580.78 2059.43 2594.21 2047.92 2600.5 2037.25 2599.65 2027.44 2598.61 2015.4 2594.12 2009.72 2586.19 2010.4 2583.81 2010.61 2581.75 2011.21 2580.02 2012.19 2581.94 2016.31 2583.02 2019.82 2583.27 2022.7 2583.49 2025.19 2582.78 2027.3 2581.15 2029.02 2579.52 2030.74 2577.2 2031.73 2574.21 2031.99 2571.43 2032.23 2569.2 2031.64 2567.52 2030.22 2565.83 2028.81 2564.88 2026.8 2564.65 2024.2 2564.26 2019.62 2566.37 2015.46 2570.99 2011.72 2575.61 2007.98 2581.79 2005.77 2589.55 2005.1Z" fill-rule="evenodd"/><text fill="#000000" fill-opacity="0" font-family="Arial,Arial_MSFontService,sans-serif" font-size="81.1056" x="2564.61" y="2075.88">2</text><g filter="url(#fx14)" transform="translate(2625 1988)"><g><path d="M40.7532 15.2285C49.6121 14.3173 56.5447 15.3783 61.5513 18.4115 66.5579 21.4448 69.3149 25.4282 69.8225 30.3617 70.2966 34.9712 69.0249 39.0596 66.0073 42.6271 62.9897 46.1946 58.521 48.9197 52.6008 50.8024L52.6897 51.6667C59.915 51.5057 65.6348 52.8916 69.8486 55.8245 74.0625 58.7573 76.4529 62.9785 77.0195 68.4882 77.7271 75.3663 75.0298 81.3392 68.9277 86.4066 62.8254 91.4742 54.823 94.5172 44.9199 95.536 37.3574 96.3138 30.9277 95.3649 25.6304 92.6891 20.333 90.0133 17.4583 86.4786 17.0063 82.0853 16.7322 79.4205 17.3723 77.153 18.9268 75.2826 20.4812 73.4122 22.5549 72.3439 25.1477 72.077 28.1006 71.7733 30.5381 72.296 32.46 73.6449 34.3821 74.9938 35.4727 76.9288 35.7319 79.4496 35.9912 81.9703 35.5496 85.6368 34.407 90.4489 36.1375 90.9987 38.6953 91.0995 42.0803 90.7513 47.0139 90.2438 50.7705 88.2015 53.3503 84.6246 55.9302 81.0475 56.9165 76.306 56.3088 70.4003 55.2791 60.3892 50.2988 55.843 41.3682 56.7616L34.5081 57.4673 33.8357 50.9313 38.697 50.4312C43.2346 49.9645 46.3645 48.2869 48.0872 45.3984 49.8098 42.51 50.386 38.293 49.8154 32.7472 48.9043 23.8884 44.6675 19.848 37.1052 20.626 34.3682 20.9075 32.1243 21.5569 30.3728 22.574 32.3992 27.0602 33.54 30.5457 33.7957 33.0304 34.0625 35.6232 33.3894 37.7485 31.7766 39.4066 30.1641 41.0646 27.8992 42.0436 24.9824 42.3436 22.3535 42.614 20.1399 41.9683 18.3416 40.4064 16.5435 38.8446 15.5107 36.7672 15.2441 34.1744 14.7959 29.8171 16.9548 25.7738 21.7207 22.0447 26.4866 18.3156 32.8308 16.0435 40.7532 15.2285Z" fill-rule="evenodd"/></g></g><path d="M2660.89 1998.37C2669.75 1997.46 2676.68 1998.52 2681.69 2001.55 2686.7 2004.58 2689.45 2008.57 2689.96 2013.5 2690.44 2018.11 2689.16 2022.2 2686.15 2025.77 2683.13 2029.33 2678.66 2032.06 2672.74 2033.94L2672.83 2034.81C2680.05 2034.64 2685.77 2036.03 2689.99 2038.96 2694.2 2041.9 2696.59 2046.12 2697.16 2051.63 2697.87 2058.5 2695.17 2064.48 2689.07 2069.55 2682.96 2074.61 2674.96 2077.66 2665.06 2078.67 2657.5 2079.45 2651.07 2078.5 2645.77 2075.83 2640.47 2073.15 2637.6 2069.62 2637.15 2065.22 2636.87 2062.56 2637.51 2060.29 2639.07 2058.42 2640.62 2056.55 2642.69 2055.48 2645.29 2055.22 2648.24 2054.91 2650.68 2055.43 2652.6 2056.78 2654.52 2058.13 2655.61 2060.07 2655.87 2062.59 2656.13 2065.11 2655.69 2068.78 2654.55 2073.59 2656.28 2074.14 2658.83 2074.24 2662.22 2073.89 2667.15 2073.38 2670.91 2071.34 2673.49 2067.76 2676.07 2064.19 2677.06 2059.44 2676.45 2053.54 2675.42 2043.53 2670.44 2038.98 2661.51 2039.9L2654.65 2040.61 2653.97 2034.07 2658.84 2033.57C2663.37 2033.1 2666.5 2031.43 2668.23 2028.54 2669.95 2025.65 2670.52 2021.43 2669.95 2015.89 2669.04 2007.03 2664.81 2002.99 2657.24 2003.76 2654.51 2004.05 2652.26 2004.7 2650.51 2005.71 2652.54 2010.2 2653.68 2013.68 2653.93 2016.17 2654.2 2018.76 2653.53 2020.89 2651.92 2022.55 2650.3 2024.2 2648.04 2025.18 2645.12 2025.48 2642.49 2025.75 2640.28 2025.11 2638.48 2023.55 2636.68 2021.98 2635.65 2019.91 2635.38 2017.31 2634.93 2012.96 2637.09 2008.91 2641.86 2005.18 2646.63 2001.45 2652.97 1999.18 2660.89 1998.37Z" fill-rule="evenodd"/><text fill="#000000" fill-opacity="0" font-family="Arial,Arial_MSFontService,sans-serif" font-size="80.8859" x="2635.32" y="2068.83">3</text></g></svg>